<svg id="label" xmlns="http://www.w3.org/2000/svg" width="153.219" height="126" viewBox="0 0 153.219 126">
  <defs>
    <style>
      .cls-1 {
        fill: #f4f6f8;
      }

      .cls-2 {
        fill: #44458b;
      }

      .cls-3 {
        fill: #c92a2d;
      }

      .cls-4 {
        fill: #fff;
        fill-rule: evenodd;
      }

      .cls-5 {
        fill: #797979;
        fill-opacity: 0;
        stroke: #fff;
        stroke-linejoin: round;
        stroke-width: 2px;
      }
    </style>
  </defs>
  <g id="made_in" data-name="made in">
    <rect class="cls-1" x="2" y="87" width="43" height="13"/>
    <rect id="Rectangle_582_copy" data-name="Rectangle 582 copy" class="cls-2" x="2" y="100" width="43" height="13"/>
    <rect id="Rectangle_582_copy_2" data-name="Rectangle 582 copy 2" class="cls-3" x="2" y="113" width="43" height="13"/>
    <path id="Сделано_в_россии" data-name="Сделано в россии" class="cls-4" d="M122.872,144.086a5.044,5.044,0,0,1-1.314,3.015,3.9,3.9,0,0,1-2.952,1.143,4.225,4.225,0,0,1-3.411-1.539,7.146,7.146,0,0,1,.018-8.208,4.6,4.6,0,0,1,6.093-.72,3.649,3.649,0,0,1,1.386,2.259h1.224a4.218,4.218,0,0,0-1.755-3.015,5.694,5.694,0,0,0-3.483-1.143,5.359,5.359,0,0,0-4.383,1.944,7.306,7.306,0,0,0-1.593,4.788,7.086,7.086,0,0,0,1.6,4.86,5.4,5.4,0,0,0,4.266,1.818,5.338,5.338,0,0,0,3.807-1.413,5.631,5.631,0,0,0,1.7-3.789h-1.206Zm14.418,3.87h-1.35V136.184h-7.956v2.4q0,0.351-.045,1.647a16.432,16.432,0,0,1-.162,2q-0.117.7-.315,1.818a11.869,11.869,0,0,1-.549,2.061,14.518,14.518,0,0,1-.837,1.845h-1.17v4.5h1.224V149h9.936v3.456h1.224v-4.5Zm-9.918,0a14.716,14.716,0,0,0,1.62-5.571q0.144-1.575.18-2.475t0.036-2.448v-0.234h5.508v10.728h-7.344Zm11.844-11.772V149h8.964v-1.044h-7.74V142.88h7.182v-1.026H140.44v-4.626h7.668v-1.044h-8.892Zm20.592,0h-7.542l-0.252,7.866a10.466,10.466,0,0,1-.45,3.258,1.221,1.221,0,0,1-1.116.918,2.563,2.563,0,0,1-1.26-.216v1.008a3.2,3.2,0,0,0,1.3.252q2.574,0,2.7-4.5l0.234-7.542h5.166V149h1.224V136.184Zm6.714-.036L161.338,149h1.314l1.566-4.032h5.868L171.634,149h1.35l-5.112-12.852h-1.35Zm-1.926,7.83,2.592-6.678,2.52,6.678H164.6Zm18.845-7.794v5.58h-7.65v-5.58h-1.224V149h1.224v-6.192h7.65V149h1.224V136.184h-1.224Zm5.265,1.548a7.942,7.942,0,0,0-.009,9.72,5.56,5.56,0,0,0,4.356,1.854,5.649,5.649,0,0,0,4.392-1.845,6.915,6.915,0,0,0,1.674-4.833,7.019,7.019,0,0,0-1.683-4.878A6.045,6.045,0,0,0,188.706,137.732Zm7.857,0.774a6.98,6.98,0,0,1,.009,8.19,4.714,4.714,0,0,1-6.993-.009,6.192,6.192,0,0,1-1.314-4.131,6.045,6.045,0,0,1,1.323-4.068,4.339,4.339,0,0,1,3.465-1.548A4.382,4.382,0,0,1,196.563,138.506ZM113.3,173h5.67a4.956,4.956,0,0,0,3.105-.945,3.229,3.229,0,0,0,1.233-2.727,2.852,2.852,0,0,0-.765-2.124,3.728,3.728,0,0,0-1.953-.99,2.915,2.915,0,0,0,2.214-2.826,2.735,2.735,0,0,0-1.143-2.412,4.924,4.924,0,0,0-2.871-.792H113.3V173Zm4.932-11.772a8.269,8.269,0,0,1,1.233.081,4.067,4.067,0,0,1,1.053.315,1.7,1.7,0,0,1,.8.72,2.391,2.391,0,0,1,.279,1.206,1.909,1.909,0,0,1-.882,1.764,4.063,4.063,0,0,1-2.16.54h-4.068v-4.626h3.744Zm0.018,5.616a9.083,9.083,0,0,1,1.35.09,5.5,5.5,0,0,1,1.206.333,1.917,1.917,0,0,1,.945.774,2.41,2.41,0,0,1,.333,1.305,2.634,2.634,0,0,1-.324,1.359,1.956,1.956,0,0,1-.909.81,4.574,4.574,0,0,1-1.17.351,9.039,9.039,0,0,1-1.359.09h-3.834v-5.112h3.762ZM131.26,173h1.224v-5.472h4.23a4.372,4.372,0,0,0,2.97-.954,3.5,3.5,0,0,0,1.1-2.79,3.316,3.316,0,0,0-1.089-2.673,4.391,4.391,0,0,0-2.943-.927h-5.49V173Zm5.238-11.772a3.478,3.478,0,0,1,2.25.657,2.409,2.409,0,0,1,.81,1.989,2.291,2.291,0,0,1-.882,1.989,3.837,3.837,0,0,1-2.3.639h-3.888v-5.274H136.5Zm7.5,0.5a7.942,7.942,0,0,0-.009,9.72,5.56,5.56,0,0,0,4.356,1.854,5.651,5.651,0,0,0,4.392-1.845,6.915,6.915,0,0,0,1.674-4.833,7.019,7.019,0,0,0-1.683-4.878A6.045,6.045,0,0,0,144,161.732Zm7.857,0.774a6.98,6.98,0,0,1,.009,8.19,4.714,4.714,0,0,1-6.993-.009,6.192,6.192,0,0,1-1.314-4.131,6.045,6.045,0,0,1,1.323-4.068,4.337,4.337,0,0,1,3.465-1.548A4.385,4.385,0,0,1,151.852,162.506Zm14.508,5.58a5.05,5.05,0,0,1-1.314,3.015,3.9,3.9,0,0,1-2.952,1.143,4.224,4.224,0,0,1-3.411-1.539,7.146,7.146,0,0,1,.018-8.208,4.6,4.6,0,0,1,6.093-.72,3.653,3.653,0,0,1,1.386,2.259H167.4a4.218,4.218,0,0,0-1.755-3.015,5.694,5.694,0,0,0-3.483-1.143,5.358,5.358,0,0,0-4.383,1.944,7.306,7.306,0,0,0-1.593,4.788,7.081,7.081,0,0,0,1.6,4.86,5.4,5.4,0,0,0,4.266,1.818,5.338,5.338,0,0,0,3.807-1.413,5.64,5.64,0,0,0,1.7-3.789H166.36Zm13.122,0a5.05,5.05,0,0,1-1.314,3.015,3.905,3.905,0,0,1-2.952,1.143,4.222,4.222,0,0,1-3.411-1.539,7.146,7.146,0,0,1,.018-8.208,4.6,4.6,0,0,1,6.093-.72,3.658,3.658,0,0,1,1.386,2.259h1.224a4.218,4.218,0,0,0-1.755-3.015,5.694,5.694,0,0,0-3.483-1.143,5.358,5.358,0,0,0-4.383,1.944,7.306,7.306,0,0,0-1.593,4.788,7.081,7.081,0,0,0,1.6,4.86,5.4,5.4,0,0,0,4.266,1.818,5.341,5.341,0,0,0,3.807-1.413,5.64,5.64,0,0,0,1.7-3.789h-1.206ZM184.611,173l7.272-11.5V173h1.224V160.184h-1.584l-7.272,11.5v-11.5h-1.224V173h1.584Zm13.122,0,7.272-11.5V173h1.224V160.184h-1.584l-7.272,11.5v-11.5h-1.224V173h1.584Z" transform="translate(-53 -48)"/>
  </g>
  <g id="gost">
    <rect id="Rounded_Rectangle_7_copy" data-name="Rounded Rectangle 7 copy" class="cls-5" x="1" y="1" width="60" height="60" rx="10" ry="10"/>
    <path id="_31311" data-name="31311" class="cls-4" d="M67.065,88.927a1.725,1.725,0,0,1,.368-1.15,1.269,1.269,0,0,1,1-.4,1.306,1.306,0,0,1,.911.31,1.062,1.062,0,0,1,.342.827q0,1.137-1.577,1.137-0.168,0-.31-0.013v1.292q0.181-.013.452-0.013a2.039,2.039,0,0,1,1.182.317,1.159,1.159,0,0,1,.459,1.027,1.283,1.283,0,0,1-.413.989,1.539,1.539,0,0,1-1.086.381,1.429,1.429,0,0,1-1.131-.446,1.928,1.928,0,0,1-.407-1.286h-1.77v0.129a3.01,3.01,0,0,0,.9,2.3,3.415,3.415,0,0,0,2.442.853,3.543,3.543,0,0,0,2.423-.821,2.68,2.68,0,0,0,.937-2.113,2.135,2.135,0,0,0-.427-1.35,2.043,2.043,0,0,0-1.176-.73,1.6,1.6,0,0,0,.924-0.64,1.931,1.931,0,0,0,.343-1.144,2.218,2.218,0,0,0-.834-1.79,3.3,3.3,0,0,0-2.177-.691,3.08,3.08,0,0,0-2.249.808,3.124,3.124,0,0,0-.879,2.216h1.745Zm9.6-2.959a2.137,2.137,0,0,1-2.4,1.809H74.031v1.357h2.2v5.88h1.951V85.968H76.667Zm6.707,2.959a1.724,1.724,0,0,1,.368-1.15,1.269,1.269,0,0,1,1-.4,1.306,1.306,0,0,1,.911.31,1.062,1.062,0,0,1,.342.827q0,1.137-1.577,1.137-0.168,0-.31-0.013v1.292q0.181-.013.452-0.013a2.039,2.039,0,0,1,1.182.317,1.159,1.159,0,0,1,.459,1.027,1.283,1.283,0,0,1-.413.989,1.539,1.539,0,0,1-1.086.381,1.429,1.429,0,0,1-1.131-.446,1.928,1.928,0,0,1-.407-1.286H81.4v0.129a3.01,3.01,0,0,0,.9,2.3,3.415,3.415,0,0,0,2.442.853,3.543,3.543,0,0,0,2.423-.821,2.68,2.68,0,0,0,.937-2.113,2.135,2.135,0,0,0-.426-1.35,2.043,2.043,0,0,0-1.176-.73,1.6,1.6,0,0,0,.924-0.64,1.931,1.931,0,0,0,.343-1.144,2.218,2.218,0,0,0-.834-1.79,3.3,3.3,0,0,0-2.178-.691,3.08,3.08,0,0,0-2.249.808,3.125,3.125,0,0,0-.879,2.216h1.745Zm9.6-2.959a2.137,2.137,0,0,1-2.4,1.809H90.34v1.357h2.2v5.88h1.951V85.968H92.976Zm8.154,0a2.136,2.136,0,0,1-2.4,1.809H98.494v1.357h2.2v5.88h1.951V85.968H101.13Z" transform="translate(-53 -48)"/>
    <path id="ГОСТ" class="cls-4" d="M63.017,64.723v11.83h2.592v-9.62h5.649v-2.21H63.017Zm11.041,1.421a6.312,6.312,0,0,0-1.6,4.511,6.247,6.247,0,0,0,1.612,4.478,6.091,6.091,0,0,0,8.449,0,7.078,7.078,0,0,0,0-8.972,5.47,5.47,0,0,0-4.2-1.72A5.578,5.578,0,0,0,74.058,66.143Zm6.571,1.512a4.617,4.617,0,0,1,.864,2.949,4.774,4.774,0,0,1-.847,2.991,2.779,2.779,0,0,1-2.326,1.1,2.919,2.919,0,0,1-2.376-1.1A4.666,4.666,0,0,1,75.08,70.6a4.592,4.592,0,0,1,.872-2.941A3.049,3.049,0,0,1,80.63,67.655ZM94.3,71.983q-0.333,2.659-2.708,2.659a2.735,2.735,0,0,1-2.276-1.088,4.62,4.62,0,0,1-.847-2.916,5.96,5.96,0,0,1,.3-1.927,3.24,3.24,0,0,1,1.038-1.487,2.775,2.775,0,0,1,1.819-.606,2.732,2.732,0,0,1,1.736.54,2.482,2.482,0,0,1,.889,1.52H96.8a4.272,4.272,0,0,0-1.579-3.041,5.327,5.327,0,0,0-3.539-1.2A5.414,5.414,0,0,0,87.45,66.2a7.1,7.1,0,0,0-.017,8.931,5.37,5.37,0,0,0,4.146,1.7,5.163,5.163,0,0,0,3.738-1.313,5.39,5.39,0,0,0,1.562-3.539H94.3Zm3.506-7.261v2.21h3.556v9.62h2.608v-9.62h3.556v-2.21H97.81Z" transform="translate(-53 -48)"/>
  </g>
  <path id="Фигура_1" data-name="Фигура 1" class="cls-4" d="M149.979,94.02a5.69,5.69,0,0,1-5.675-5.673V73.414A9.894,9.894,0,1,1,154.2,83.3a10.1,10.1,0,0,1-2.533-.33l-0.459-.121V75.715l0.958,0.646a3.553,3.553,0,1,0-1.569-2.946V94.02h-0.615Zm-3.139-2.535a4.448,4.448,0,0,0,2.524,1.263V73.414a4.763,4.763,0,0,1,1.4-3.377l0,0a4.777,4.777,0,0,1,6.757,0l0,0a4.773,4.773,0,0,1,0,6.754l0,0a4.77,4.77,0,0,1-4.773,1.191c-0.107-.033-0.213-0.069-0.316-0.109V81.9q0.318,0.066.639,0.108a8.769,8.769,0,0,0,1.123.07,8.659,8.659,0,1,0-8.663-8.66V88.347a4.432,4.432,0,0,0,1.306,3.138h0ZM186.96,71.7H204v6.434h-4.216V85.1h-9.222V78.137h-4.217V71.7h0.615Zm15.81,1.23h-15.2v3.974h4.217V83.87h6.762V76.908h4.216V72.933h0Zm-8.516-13.006a60.719,60.719,0,0,0-10.164-4.351,46.563,46.563,0,0,0-14.154-2.344c-8.582,0-16.8,2.237-22.569,7.025-4.975,4.129-8.137,10.179-8.137,18.356,0,8.234,3,14.261,7.819,18.339,5.521,4.669,13.45,6.816,22.039,6.816A48.887,48.887,0,0,0,184.42,101.2a55.8,55.8,0,0,0,9.834-4.357v-8.9a39.83,39.83,0,0,1-7.415,3.256,26.335,26.335,0,0,1-7.857,1.3c-6.82,0-11.111-3.553-13-8.117a14.879,14.879,0,0,1-1.1-5.65,15.228,15.228,0,0,1,1.075-5.656,12.882,12.882,0,0,1,12.455-8.252,31.475,31.475,0,0,1,9.348,1.52,46.459,46.459,0,0,1,6.491,2.589V59.927h0Zm-9.789-5.519A47.8,47.8,0,0,0,169.936,52c-8.847,0-17.347,2.329-23.352,7.313C141.335,63.671,138,70.033,138,78.612c0,8.632,3.164,14.97,8.256,19.275,5.759,4.87,13.969,7.109,22.832,7.109a50.115,50.115,0,0,0,15.716-2.633,56.964,56.964,0,0,0,10.37-4.635l0.31-.179V85.808l-0.927.552a39.251,39.251,0,0,1-8.083,3.672,25.13,25.13,0,0,1-7.492,1.247c-6.241,0-10.155-3.219-11.862-7.353a13.658,13.658,0,0,1-1.01-5.184,14.008,14.008,0,0,1,.989-5.2,11.7,11.7,0,0,1,11.32-7.484,30.27,30.27,0,0,1,8.983,1.467,45.955,45.955,0,0,1,7.189,2.953l0.893,0.456V59.2l-0.322-.176A62.062,62.062,0,0,0,184.465,54.408Z" transform="translate(-53 -48)"/>
</svg>
